<?xml version="1.0" encoding="utf-8"?>
<!-- Generator: Adobe Illustrator 22.0.1, SVG Export Plug-In . SVG Version: 6.00 Build 0)  -->
<svg version="1.1" id="Layer_1" xmlns="http://www.w3.org/2000/svg" xmlns:xlink="http://www.w3.org/1999/xlink" x="0px" y="0px"
	 viewBox="0 0 1000 1000" style="enable-background:new 0 0 1000 1000;" xml:space="preserve">
<style type="text/css">
	.st0{fill:#FFFFFF;}
	.st1{fill:#000001;}
	.st2{fill:url(#SVGID_1_);}
</style>
<circle class="st0" cx="500" cy="500" r="481.5"/>
<g id="OUTLINE">
	<g>
		<g>
			<path class="st1" d="M447.1,240.2c-12.7-5.8-26.5-10.1-48.2-10.1c-43.9,0-72,34.9-72,86.3c0,50.3,23.8,88.9,73.6,88.9
				c20.1,0,42.3-7.4,54.5-12.7l3.2,58.8c-20.6,6.3-41.8,8.9-71,8.9c-89.4,0-134.5-60.9-134.5-143.9c0-78.9,46.6-141.3,131.8-141.3
				c28.6,0,49.2,3.1,68.8,9L447.1,240.2z"/>
			<path class="st1" d="M679.4,291c-2.1-34.4-18-64.1-57.7-64.1s-59.8,27.5-63,64.1H679.4z M727,438.7
				c-25.9,14.3-55.6,21.7-93.7,21.7c-90,0-142.4-51.9-142.4-141.3c0-78.9,41.8-144,126.5-144c101.1,0,129.7,69.4,129.7,164.6H558.7
				c3.2,43.9,33.9,68.9,77.8,68.9c34.4,0,64-12.7,90.5-27.5V438.7z"/>
			<path class="st1" d="M294.9,546h63v62h1.1c3.2-25.4,32.3-68.3,74.6-68.3c6.9,0,14.3,0,21.7,2.1v71.4c-6.3-3.7-19.1-5.8-31.8-5.8
				c-57.7,0-57.7,72-57.7,111.2v100.1h-70.9L294.9,546L294.9,546z"/>
			<path class="st1" d="M597.6,773.1c21.7,0,38.6-9.5,49.8-24.3c11.6-15.4,14.8-35,14.8-56.1h-30.7c-31.8,0-78.9,5.3-78.9,47.1
				C552.6,763,572.2,773.1,597.6,773.1 M514.5,560.3c27.5-12.7,64.6-20.6,94.7-20.6c83.1,0,117.5,34.4,117.5,114.9v34.9
				c0,27.5,0.5,48.1,1,68.3c0.6,20.6,1.6,39.7,3.2,60.9h-62.5c-2.6-14.3-2.6-32.3-3.2-40.7h-1.1c-16.3,30.2-51.8,47.1-84.1,47.1
				c-48.2,0-95.3-29.1-95.3-81c0-40.8,19.6-64.6,46.6-77.8c27-13.2,62-15.9,91.6-15.9h39.2c0-43.9-19.6-58.8-61.4-58.8
				c-30.1,0-60.3,11.7-84.1,29.7L514.5,560.3z"/>
		</g>
	</g>
</g>
<g id="Layer_2_1_">
	
		<linearGradient id="SVGID_1_" gradientUnits="userSpaceOnUse" x1="272.187" y1="878.5767" x2="745.2557" y2="88.0553" gradientTransform="matrix(1 0 0 -1 0 997.8898)">
		<stop  offset="0" style="stop-color:#9BC313"/>
		<stop  offset="0.3616" style="stop-color:#9FCC81"/>
		<stop  offset="0.6644" style="stop-color:#3A9139"/>
		<stop  offset="1" style="stop-color:#48A184"/>
	</linearGradient>
	<path class="st2" d="M500,18.5C234.1,18.5,18.5,234.1,18.5,500S234.1,981.5,500,981.5S981.5,765.9,981.5,500S765.9,18.5,500,18.5z
		 M500,940C257,940,60,743,60,500S257,60,500,60s440,197,440,440S743,940,500,940z"/>
</g>
</svg>
